<?xml version="1.0" encoding="UTF-8"?>
<svg version="1.1" xmlns="http://www.w3.org/2000/svg" width="55" height="56">
<path d="M0 0 C18.15 0 36.3 0 55 0 C55 18.48 55 36.96 55 56 C36.85 56 18.7 56 0 56 C0 37.52 0 19.04 0 0 Z " fill="#7059F6" transform="translate(0,0)"/>
<path d="M0 0 C5 0 5 0 6.80078125 1.75 C7.29964844 2.4925 7.79851563 3.235 8.3125 4 C8.82425781 4.7425 9.33601563 5.485 9.86328125 6.25 C10.23839844 6.8275 10.61351562 7.405 11 8 C11.33 5.36 11.66 2.72 12 0 C13.65 0 15.3 0 17 0 C17 5.94 17 11.88 17 18 C15.35 18 13.7 18 12 18 C10.19921875 16.03125 10.19921875 16.03125 8.6875 13.5 C8.17574219 12.6646875 7.66398437 11.829375 7.13671875 10.96875 C6.76160156 10.3190625 6.38648438 9.669375 6 9 C5.67 11.97 5.34 14.94 5 18 C3.35 18 1.7 18 0 18 C0 12.06 0 6.12 0 0 Z " fill="#F0EAFD" transform="translate(27,20)"/>
<path d="M0 0 C9.625 -0.25 9.625 -0.25 13 2 C12.67 4.31 12.34 6.62 12 9 C11.34 9 10.68 9 10 9 C11.65 11.97 13.3 14.94 15 18 C13.35 18 11.7 18 10 18 C7.8125 15.0625 7.8125 15.0625 6 12 C5.34 11.67 4.68 11.34 4 11 C4 13.31 4 15.62 4 18 C2.68 18 1.36 18 0 18 C0 12.06 0 6.12 0 0 Z " fill="#F7F9FE" transform="translate(11,20)"/>
<path d="M0 0 C1.32 0.33 2.64 0.66 4 1 C3.67 2.32 3.34 3.64 3 5 C2.01 5 1.02 5 0 5 C0 3.35 0 1.7 0 0 Z " fill="#8466F8" transform="translate(15,23)"/>
</svg>
